HIERARCHY
ROOT Hips
{
	OFFSET -0.001795 -0.223333 0.028219
	CHANNELS 6 Xposition Yposition Zposition Zrotation Yrotation Xrotation 
	JOINT LeftUpLeg
	{
		OFFSET 0.069520 -0.091406 -0.006815
		CHANNELS 3 Zrotation Yrotation Xrotation
		JOINT LeftLeg
		{
			OFFSET 0.034277 -0.375199 -0.004496
			CHANNELS 3 Zrotation Yrotation Xrotation
			JOINT LeftFoot
			{
				OFFSET -0.013596 -0.397961 -0.043693
				CHANNELS 3 Zrotation Yrotation Xrotation
				JOINT LeftToe
				{
					OFFSET 0.026358 -0.055791 0.119288
					CHANNELS 3 Zrotation Yrotation Xrotation
					End Site
					{
						OFFSET 0.000000 0.000000 0.000000
					}
				}
			}
		}
	}
	JOINT RightUpLeg
	{
		OFFSET -0.067670 -0.090522 -0.004320
		CHANNELS 3 Zrotation Yrotation Xrotation
		JOINT RightLeg
		{
			OFFSET -0.038290 -0.382569 -0.008850
			CHANNELS 3 Zrotation Yrotation Xrotation
			JOINT RightFoot
			{
				OFFSET 0.015774 -0.398415 -0.042312
				CHANNELS 3 Zrotation Yrotation Xrotation
				JOINT RightToe
				{
					OFFSET -0.025372 -0.048144 0.123348
					CHANNELS 3 Zrotation Yrotation Xrotation
					End Site
					{
						OFFSET 0.000000 0.000000 0.000000
					}
				}
			}
		}
	}
	JOINT Spine
	{
		OFFSET -0.002533 0.108963 -0.026696
		CHANNELS 3 Zrotation Yrotation Xrotation
		JOINT Spine1
		{
			OFFSET 0.005487 0.135180 0.001092
			CHANNELS 3 Zrotation Yrotation Xrotation
			JOINT Spine2
			{
				OFFSET 0.001457 0.052922 0.025425
				CHANNELS 3 Zrotation Yrotation Xrotation
				JOINT Neck
				{
					OFFSET -0.002778 0.213870 -0.042857
					CHANNELS 3 Zrotation Yrotation Xrotation
					JOINT Head
					{
						OFFSET 0.005152 0.064970 0.051349
						CHANNELS 3 Zrotation Yrotation Xrotation
						End Site
						{
							OFFSET 0.000000 0.000000 0.000000
						}
					}
				}
				JOINT LeftShoulder
				{
					OFFSET 0.078845 0.121749 -0.034090
					CHANNELS 3 Zrotation Yrotation Xrotation
					JOINT LeftArm
					{
						OFFSET 0.090977 0.030469 -0.008868
						CHANNELS 3 Zrotation Yrotation Xrotation
						JOINT LeftForeArm
						{
							OFFSET 0.259612 -0.012772 -0.027456
							CHANNELS 3 Zrotation Yrotation Xrotation
							JOINT LeftHand
							{
								OFFSET 0.249234 0.008986 -0.001171
								CHANNELS 3 Zrotation Yrotation Xrotation
								End Site
								{
									OFFSET 0.000000 0.000000 0.000000
								}
							}
						}
					}
				}
				JOINT RightShoulder
				{
					OFFSET -0.081759 0.118833 -0.038615
					CHANNELS 3 Zrotation Yrotation Xrotation
					JOINT RightArm
					{
						OFFSET -0.096012 0.032551 -0.009143
						CHANNELS 3 Zrotation Yrotation Xrotation
						JOINT RightForeArm
						{
							OFFSET -0.253742 -0.013329 -0.021401
							CHANNELS 3 Zrotation Yrotation Xrotation
							JOINT RightHand
							{
								OFFSET -0.255298 0.007772 -0.005559
								CHANNELS 3 Zrotation Yrotation Xrotation
								End Site
								{
									OFFSET 0.000000 0.000000 0.000000
								}
							}
						}
					}
				}
			}
		}
	}
}
MOTION
Frames: 16
Frame Time: 0.050000
0.329834 0.820706 -1.560034 -3.625976 -13.561499 15.344685 3.291880 -0.520515 -34.509676 0.850143 2.504779 62.021218 4.157053 7.800067 -4.136743 0.000000 0.000000 0.000000 -3.297277 3.714066 -31.595871 11.079625 -0.505348 53.060251 -11.322718 -28.598989 -4.511599 0.000000 0.000000 0.000000 2.922179 -0.461358 48.141538 -9.701066 1.953387 -36.954706 -1.516203 8.948642 28.920525 12.372131 -1.715576 -45.315427 0.000000 0.000000 0.000000 -23.636336 -21.903616 11.189073 -27.312207 -21.832948 -0.642671 10.055774 -35.775140 -1.806551 0.000000 0.000000 0.000000 34.150147 6.401690 3.803245 32.072889 19.112858 -0.989836 -10.525666 47.038497 -1.935092 0.000000 0.000000 0.000000 
0.331382 0.820509 -1.560512 -3.690831 -13.673183 15.765718 3.682512 -0.413207 -33.893760 0.363971 2.960369 61.773123 3.997530 6.308393 -8.653844 0.000000 0.000000 0.000000 -3.029130 3.577679 -30.338859 10.032585 0.085948 51.339635 -10.451203 -26.599923 -9.534995 0.000000 0.000000 0.000000 2.452166 -0.257923 47.015097 -8.907217 1.874075 -36.815194 -1.315997 9.359955 29.238708 12.130991 -1.650253 -44.942718 0.000000 0.000000 0.000000 -22.570631 -22.291723 11.219082 -27.239269 -22.517513 -0.537418 10.123398 -35.861889 -1.846666 0.000000 0.000000 0.000000 33.951956 7.222413 4.535853 31.373229 19.652090 -0.943653 -12.150268 46.653619 -2.591739 0.000000 0.000000 0.000000 
0.333255 0.818899 -1.560059 -3.572527 -13.970523 15.931169 3.702056 -0.420138 -32.945944 0.031128 3.404531 61.909874 4.009235 4.877074 -13.474109 0.000000 0.000000 0.000000 -3.215887 3.402679 -29.329659 9.417860 0.494349 50.880205 -9.636157 -23.917654 -14.091712 0.000000 0.000000 0.000000 2.660043 -0.323862 46.447477 -9.467084 1.946726 -36.655573 -0.875083 9.307951 29.253278 12.368479 -1.806852 -44.639118 0.000000 0.000000 0.000000 -22.168970 -22.892434 11.597977 -26.560623 -22.756409 -0.543440 11.008504 -36.299186 -2.160375 0.000000 0.000000 0.000000 33.660038 7.317105 4.491658 30.966022 19.927776 -0.870708 -13.311891 46.630635 -3.092892 0.000000 0.000000 0.000000 
0.335187 0.814892 -1.559433 -3.431138 -14.004744 15.829546 3.195116 -0.589350 -32.247794 0.089089 3.418273 62.071663 4.515693 5.306622 -16.672758 0.000000 0.000000 0.000000 -3.627292 3.222525 -28.601876 8.961507 0.778529 51.128577 -9.005214 -21.149694 -17.632054 0.000000 0.000000 0.000000 2.380841 -0.194871 46.185432 -8.671701 1.864864 -36.415181 -0.839991 9.335420 29.053395 12.616821 -1.853134 -44.897790 0.000000 0.000000 0.000000 -21.401065 -23.366659 11.757578 -26.692418 -22.755662 -0.520357 11.189363 -36.426610 -2.231812 0.000000 0.000000 0.000000 33.790189 8.060819 5.029031 29.841099 19.722794 -0.923789 -13.821322 46.769606 -3.390876 0.000000 0.000000 0.000000 
0.336856 0.809822 -1.558936 -3.566448 -14.147878 15.837846 3.040530 -0.624311 -32.074810 0.459343 3.305443 63.053284 4.651527 4.725448 -19.231479 0.000000 0.000000 0.000000 -3.933977 3.115396 -28.149048 8.848852 0.933018 51.811772 -8.555127 -18.408119 -20.957368 0.000000 0.000000 0.000000 2.398704 -0.157830 46.457790 -8.551741 1.845556 -36.596886 -0.759178 9.095515 28.951878 12.920128 -2.012867 -44.830407 0.000000 0.000000 0.000000 -20.636775 -24.263490 12.233847 -26.668258 -23.151108 -0.454144 12.403529 -35.750454 -2.569884 0.000000 0.000000 0.000000 33.989936 8.798783 5.469099 29.738580 19.698390 -0.898060 -14.418666 46.592918 -3.648254 0.000000 0.000000 0.000000 
0.338200 0.803597 -1.558655 -3.713474 -13.958419 16.449199 2.892908 -0.681132 -32.373612 0.961146 2.970180 64.497159 4.885330 3.639477 -23.116278 0.000000 0.000000 0.000000 -4.203999 3.072204 -28.219897 9.131020 0.802612 53.236043 -8.345142 -16.193632 -24.812300 0.000000 0.000000 0.000000 2.269869 -0.090617 47.282961 -8.021862 1.771931 -37.091505 -0.936363 8.638998 28.694128 14.119078 -2.488399 -44.723423 0.000000 0.000000 0.000000 -19.701251 -24.811917 12.483855 -26.652209 -23.587681 -0.380009 13.728658 -34.537781 -2.861898 0.000000 0.000000 0.000000 33.979003 9.405790 5.790637 29.430488 19.980766 -0.794341 -14.135048 46.506896 -3.556242 0.000000 0.000000 0.000000 
0.339146 0.798545 -1.558677 -3.817092 -13.772436 16.782775 2.863649 -0.697582 -32.816980 1.169241 2.815511 65.615856 5.110030 3.354929 -25.004627 0.000000 0.000000 0.000000 -4.515666 3.047127 -28.469489 9.659410 0.520335 54.810563 -8.252390 -14.934505 -27.069570 0.000000 0.000000 0.000000 1.895525 0.096428 47.985973 -7.126721 1.666092 -36.989024 -1.289758 8.573476 28.412359 14.685480 -2.676717 -44.593341 0.000000 0.000000 0.000000 -18.747951 -25.341985 12.572289 -26.764140 -24.190395 -0.233932 14.700085 -33.327283 -3.042885 0.000000 0.000000 0.000000 34.076726 9.905491 6.222886 29.520205 20.003541 -0.770547 -13.613266 46.079746 -3.301898 0.000000 0.000000 0.000000 
0.339803 0.794690 -1.559055 -4.031162 -13.717127 17.549970 3.091683 -0.615079 -33.451079 1.476863 2.557570 65.881439 5.123259 2.302517 -26.755726 0.000000 0.000000 0.000000 -4.369795 3.189502 -29.294221 9.854999 0.470370 56.345687 -8.335520 -15.998259 -27.102804 0.000000 0.000000 0.000000 1.439122 0.345351 48.381456 -6.372167 1.577184 -36.721812 -1.392929 8.532317 28.108562 15.530422 -2.899643 -44.870567 0.000000 0.000000 0.000000 -17.756555 -25.722789 12.602724 -27.221340 -24.537657 -0.112603 15.523224 -32.729257 -3.212382 0.000000 0.000000 0.000000 33.990853 10.542987 6.718898 29.401069 20.470458 -0.659066 -13.466800 45.508408 -3.193721 0.000000 0.000000 0.000000 
0.340146 0.790990 -1.559962 -4.485795 -13.858514 18.850145 3.240134 -0.514658 -34.313226 1.730934 2.457593 66.389554 5.424135 4.193538 -25.785396 0.000000 0.000000 0.000000 -4.660232 3.388840 -30.865877 10.782462 -0.016000 58.279071 -8.307692 -17.027002 -26.089601 0.000000 0.000000 0.000000 0.989999 0.696854 49.420712 -5.808249 1.502856 -36.609467 -1.532105 8.540498 27.725267 15.412392 -2.624547 -45.605500 0.000000 0.000000 0.000000 -16.658176 -25.643994 12.357442 -27.673374 -25.199974 0.074468 16.615636 -32.517613 -3.483041 0.000000 0.000000 0.000000 33.068113 10.960901 7.023651 30.088317 21.232056 -0.439698 -13.073283 45.332342 -2.969540 0.000000 0.000000 0.000000 
0.340006 0.784075 -1.561168 -5.109488 -13.827218 19.800299 4.248580 -0.186689 -34.744795 1.644814 2.676861 67.589827 5.645891 5.361545 -25.018516 0.000000 0.000000 0.000000 -4.699514 3.595716 -32.242815 11.499003 -0.419003 60.884999 -8.340194 -18.594089 -24.307247 0.000000 0.000000 0.000000 0.667865 1.025493 51.283990 -5.157025 1.434626 -36.865032 -1.675461 8.803923 27.302677 15.554329 -2.332685 -46.628721 0.000000 0.000000 0.000000 -15.730719 -24.946664 11.702703 -28.165589 -25.294192 0.189492 17.333146 -34.385040 -3.913276 0.000000 0.000000 0.000000 31.991642 10.582283 6.902475 30.723685 21.994420 -0.233458 -12.221022 45.374030 -2.546975 0.000000 0.000000 0.000000 
0.339320 0.774950 -1.562430 -5.857911 -13.743988 21.072169 5.219147 0.170763 -35.679847 1.741656 2.759744 69.293018 6.049528 7.882385 -22.347458 0.000000 0.000000 0.000000 -4.432138 3.873911 -33.632577 11.866254 -0.621110 63.340870 -8.623417 -21.213361 -21.462436 0.000000 0.000000 0.000000 0.354523 1.301471 52.446840 -4.668119 1.371161 -37.039058 -1.834074 8.924825 27.301256 15.461900 -2.104177 -47.244531 0.000000 0.000000 0.000000 -15.031267 -24.795446 11.478702 -27.976875 -24.974154 0.114428 18.434541 -35.406049 -4.393621 0.000000 0.000000 0.000000 31.165377 10.846651 7.201720 31.533569 23.012081 0.017877 -12.296020 45.919650 -2.507893 0.000000 0.000000 0.000000 
0.338225 0.763291 -1.563481 -6.419955 -13.292221 22.121525 6.488251 0.605430 -36.787436 1.313055 3.162230 71.374129 6.500069 10.030986 -19.805155 0.000000 0.000000 0.000000 -4.389187 4.108901 -35.230539 12.289422 -1.065914 65.905619 -8.894729 -23.167727 -20.788708 0.000000 0.000000 0.000000 0.483066 1.273256 54.026193 -4.898089 1.387832 -36.575917 -2.060137 8.705492 26.402370 15.636670 -1.833916 -48.290303 0.000000 0.000000 0.000000 -13.826476 -23.960872 10.814302 -28.417343 -24.833502 0.214406 19.533054 -37.815388 -5.082878 0.000000 0.000000 0.000000 29.542284 10.323642 6.751798 32.855894 23.200835 0.272946 -11.193165 47.397202 -2.037147 0.000000 0.000000 0.000000 
0.336981 0.749303 -1.564608 -6.468756 -12.825536 22.801400 7.874726 1.107170 -38.216254 0.513357 3.923948 74.198373 6.506867 9.977033 -18.860615 0.000000 0.000000 0.000000 -4.560523 4.303694 -37.029255 12.530415 -1.491039 68.917459 -9.141599 -25.036930 -21.607838 0.000000 0.000000 0.000000 -0.053158 1.558394 54.941687 -4.530217 1.357884 -36.690331 -2.008167 8.324880 26.734682 15.254755 -1.538894 -49.194148 0.000000 0.000000 0.000000 -12.405472 -22.279995 9.802788 -29.719120 -24.670221 0.251400 19.980328 -40.132488 -5.543429 0.000000 0.000000 0.000000 28.936302 9.656647 6.251945 33.193044 23.262573 0.294444 -10.348840 49.312797 -1.678894 0.000000 0.000000 0.000000 
0.335995 0.729638 -1.565899 -6.525720 -12.051756 24.266480 9.772260 1.834209 -40.248107 -0.605920 5.037394 78.082996 6.032314 7.708328 -19.518771 0.000000 0.000000 0.000000 -5.353793 4.411037 -39.548879 13.287760 -2.672893 73.125042 -9.151008 -25.751050 -21.168178 0.000000 0.000000 0.000000 0.119151 1.398115 56.642928 -4.482422 1.344628 -37.162641 -2.338732 8.221643 25.678097 15.928940 -1.669640 -48.653812 0.000000 0.000000 0.000000 -11.285084 -21.088257 8.996154 -29.384037 -23.845735 0.157300 19.811416 -43.938229 -6.097372 0.000000 0.000000 0.000000 27.884998 8.037693 5.236313 33.672311 22.081141 0.121322 -9.160090 52.630247 -1.083350 0.000000 0.000000 0.000000 
0.335352 0.703327 -1.567530 -6.577105 -11.623843 26.093893 12.106178 2.886781 -42.523283 -2.095172 6.948942 82.682907 6.304331 7.665590 -20.714420 0.000000 0.000000 0.000000 -6.814233 4.473336 -43.030980 14.271496 -4.332750 78.142871 -9.712279 -28.122409 -18.185329 0.000000 0.000000 0.000000 0.100318 1.436414 58.142659 -4.420993 1.344447 -37.850900 -2.541866 8.284872 26.020744 15.632694 -1.418206 -49.031025 0.000000 0.000000 0.000000 -9.186430 -20.019374 8.229225 -29.728909 -23.677130 0.124824 22.754577 -46.995804 -7.876535 0.000000 0.000000 0.000000 27.219465 6.312111 4.238568 33.698440 21.336008 -0.128168 -10.323032 56.679617 -1.542109 0.000000 0.000000 0.000000 
0.335550 0.668518 -1.570081 -7.336019 -12.246702 27.641073 15.249305 4.615452 -44.242143 -2.321996 8.445338 88.358431 5.672721 5.385115 -19.536986 0.000000 0.000000 0.000000 -8.839108 4.533554 -46.715932 15.601701 -6.300814 84.190086 -9.547654 -26.934260 -15.195312 0.000000 0.000000 0.000000 -0.179775 2.129626 60.502644 -4.094071 1.309901 -37.637434 -2.654023 8.403252 24.508596 15.329592 -1.242081 -48.511528 0.000000 0.000000 0.000000 -6.808450 -18.783364 7.391604 -30.812533 -22.138189 0.059700 25.382182 -51.150126 -10.030618 0.000000 0.000000 0.000000 25.844427 4.925511 3.350830 33.370936 19.322298 -0.487723 -12.932747 60.781618 -2.989740 0.000000 0.000000 0.000000 
